<?xml version="1.0" encoding="UTF-8" standalone="no"?>
<!-- Created with Inkscape (http://www.inkscape.org/) -->

<svg
   xmlns:dc="http://purl.org/dc/elements/1.1/"
   xmlns:cc="http://creativecommons.org/ns#"
   xmlns:rdf="http://www.w3.org/1999/02/22-rdf-syntax-ns#"
   xmlns:svg="http://www.w3.org/2000/svg"
   xmlns="http://www.w3.org/2000/svg"
   xmlns:sodipodi="http://sodipodi.sourceforge.net/DTD/sodipodi-0.dtd"
   xmlns:inkscape="http://www.inkscape.org/namespaces/inkscape"
   width="744.09448819"
   height="1052.3622047"
   id="svg2"
   version="1.1"
   inkscape:version="0.48.4 r9939"
   sodipodi:docname="dwf_icon.svg">
  <defs
     id="defs4" />
  <sodipodi:namedview
     id="base"
     pagecolor="#ffffff"
     bordercolor="#666666"
     borderopacity="1.0"
     inkscape:pageopacity="0.0"
     inkscape:pageshadow="2"
     inkscape:zoom="0.7"
     inkscape:cx="-65.651732"
     inkscape:cy="723.05898"
     inkscape:document-units="px"
     inkscape:current-layer="layer1"
     showgrid="false"
     inkscape:window-width="1535"
     inkscape:window-height="876"
     inkscape:window-x="65"
     inkscape:window-y="24"
     inkscape:window-maximized="1"
     inkscape:snap-grids="false" />
  <metadata
     id="metadata7">
    <rdf:RDF>
      <cc:Work
         rdf:about="">
        <dc:format>image/svg+xml</dc:format>
        <dc:type
           rdf:resource="http://purl.org/dc/dcmitype/StillImage" />
        <dc:title></dc:title>
      </cc:Work>
    </rdf:RDF>
  </metadata>
  <g
     inkscape:label="Layer 1"
     inkscape:groupmode="layer"
     id="layer1">
    <path
       transform="matrix(1.8209617,0,0,1.8209617,182.53338,28.889822)"
       d="m 297.22033,215.86441 a 24.949152,24.949152 0 1 1 -49.8983,0 24.949152,24.949152 0 1 1 49.8983,0 z"
       sodipodi:ry="24.949152"
       sodipodi:rx="24.949152"
       sodipodi:cy="215.86441"
       sodipodi:cx="272.27118"
       id="path3861"
       style="fill:#ffffff;fill-opacity:1;stroke:none"
       sodipodi:type="arc" />
    <path
       style="fill:#ffffff;fill-opacity:1;stroke:#000000;stroke-width:15.37856197;stroke-miterlimit:4;stroke-opacity:1;stroke-dasharray:none;stroke-dashoffset:0"
       d=""
       id="path3909"
       inkscape:connector-curvature="0" />
    <rect
       style="fill:none;stroke:#3e8c84;stroke-width:3.0079608;stroke-miterlimit:4;stroke-opacity:1;stroke-dasharray:none;stroke-dashoffset:0"
       id="rect3968"
       width="174.15739"
       height="174.15739"
       x="8.9753828"
       y="4.4779048"
       ry="22.694981" />
    <g
       id="g3045"
       inkscape:export-filename="/home/angelika/Pictures/drinkwaterfree/icon/dwf_info_color.png"
       inkscape:export-xdpi="90"
       inkscape:export-ydpi="90">
      <path
         d="m 181.53068,493.1401 -3.89138,-13.63663 c -0.63176,-2.21323 -2.6537,-3.73887 -4.95431,-3.73887 h -27.77215 c -1.004,1.49255 -2.06331,2.99078 -3.18363,4.49729 -7.78431,10.4587 -15.69787,17.53318 -16.5752,18.3066 -2.25924,1.98938 -5.1611,3.08488 -8.17257,3.08488 -3.00939,0 -5.91125,-1.09447 -8.1736,-3.08591 -0.8763,-0.77239 -8.79089,-7.8479 -16.574684,-18.30557 -1.120316,-1.50651 -2.179627,-3.00526 -3.183621,-4.49729 H 61.276859 c -2.300603,0 -4.322549,1.52564 -4.95431,3.73887 l -4.637913,16.25208 103.671384,18.98902 26.17466,-21.60447 z"
         id="path3945"
         inkscape:connector-curvature="0"
         style="fill:#3e8c84" />
      <path
         d="m 193.55586,535.28405 -9.94171,-34.84302 -49.327,41.40982 h 54.31492 c 1.61662,0 3.13916,-0.75842 4.11265,-2.04883 0.97349,-1.29092 1.2842,-2.9639 0.84114,-4.51797 z"
         id="path3947"
         inkscape:connector-curvature="0"
         style="fill:#3e8c84" />
      <path
         d="m 65.433455,505.6073 -15.737161,-2.88273 -9.290301,32.55948 c -0.44306,1.55407 -0.132349,3.22705 0.841659,4.51745 0.973491,1.29041 2.496025,2.04883 4.112651,2.04883 H 65.433455 V 505.6073 z"
         id="path3949"
         inkscape:connector-curvature="0"
         style="fill:#3e8c84" />
      <polygon
         transform="matrix(0.5169895,0,0,0.5169895,40.207986,397.09741)"
         points="62.746,212.445 62.746,279.992 160.273,279.992 208.857,239.207 "
         id="polygon3951"
         style="fill:#3e8c84" />
      <g
         transform="translate(-127.7843,29.041886)"
         id="g3038">
        <path
           d="m 248.42369,463.92913 c -0.97349,0.85614 -2.18893,1.28524 -3.40541,1.28524 -1.21647,0 -2.43243,-0.4291 -3.40541,-1.28524 -1.23302,-1.08619 -30.18753,-26.89431 -30.18753,-53.65989 0,-18.52994 15.06921,-33.60536 33.59243,-33.60536 18.52373,0 33.59345,15.07542 33.59345,33.60536 10e-4,26.76558 -28.95451,52.5737 -30.18753,53.65989 z"
           id="path3025"
           inkscape:connector-curvature="0"
           style="fill:none;stroke:#3e8c84;stroke-width:4.5655756;stroke-miterlimit:4;stroke-opacity:1;stroke-dasharray:none"
           sodipodi:nodetypes="cscsscc" />
        <path
           inkscape:connector-curvature="0"
           id="path3030"
           d="m 241.37585,440.70125 c -2.2945,-0.61052 -3.385,-1.0836 -5.33158,-2.31298 -4.84022,-3.05687 -8.01775,-9.06287 -7.62624,-14.41472 0.42774,-5.84709 4.68576,-15.59274 10.79231,-24.70115 1.6631,-2.48065 4.53565,-6.20954 4.77605,-6.19985 0.0969,0.004 0.76958,1.22947 1.49475,2.72346 1.56127,3.21651 3.63623,6.37963 7.64585,11.65551 6.90912,9.09105 8.74303,11.87688 9.68817,14.71704 0.45238,1.35938 0.52057,2.00446 0.40286,3.81078 -0.47168,7.23817 -6.16175,13.39724 -13.81093,14.94927 -2.08765,0.42359 -6.00114,0.3128 -8.03124,-0.22736 z m 5.19264,-3.74377 c -3.7e-4,-0.10451 -0.72075,-0.56218 -1.60054,-1.01706 -3.5776,-1.84978 -7.04289,-5.89572 -8.18381,-9.55511 -0.61484,-1.97202 -0.7337,-6.85566 -0.24615,-10.1132 0.22729,-1.51868 0.357,-2.81748 0.28824,-2.88624 -0.42134,-0.42134 -2.88603,3.2024 -3.86507,5.68269 -0.61146,1.54906 -0.68603,2.06895 -0.68538,4.77831 5.2e-4,2.54775 0.0921,3.27014 0.56471,4.46022 1.60833,4.04978 5.02756,7.21394 9.04205,8.36751 1.53861,0.44212 4.68767,0.63222 4.68595,0.28288 l 0,0 z"
           style="fill:#3e8c84;fill-opacity:1;fill-rule:evenodd;stroke:none" />
        <path
           style="fill:none;stroke:none"
           d="m 242.56153,420.8523 c -2.91325,-0.63319 -5.82447,-2.94052 -7.20237,-5.70836 -3.26318,-6.55486 0.83914,-14.47415 8.10391,-15.6441 6.30527,-1.01544 12.4062,4.29258 12.4062,10.79382 0,4.75913 -3.47772,9.26845 -8.08122,10.47834 -1.96363,0.51609 -3.13844,0.53414 -5.22652,0.0803 z m 5.44848,-4.74716 c 3.24417,-1.61495 4.44352,-5.73388 2.63639,-9.05418 -2.3994,-4.40849 -8.89695,-4.42281 -11.24718,-0.0248 -1.2351,2.31127 -1.18822,4.45474 0.14608,6.67803 1.77652,2.96014 5.32147,3.96564 8.46471,2.40093 z"
           id="path3032"
           inkscape:connector-curvature="0" />
        <path
           style="fill:none;stroke:none"
           d="m 242.99427,416.19247 c -1.82458,-0.62979 -3.35172,-2.22057 -3.89815,-4.0606 -0.49334,-1.66127 -0.49647,-2.0977 -0.0263,-3.68084 0.78044,-2.62801 3.18691,-4.44159 5.89364,-4.44159 5.83306,0 8.47634,7.04065 4.12065,10.97575 -0.97139,0.87759 -3.03145,1.71159 -4.18292,1.69342 -0.28731,-0.005 -1.14541,-0.2233 -1.90689,-0.48614 l 0,0 z"
           id="path3034"
           inkscape:connector-curvature="0" />
        <path
           style="fill:none;stroke:none"
           d="m 242.99427,428.16004 c -1.82458,-1.48342 -3.35172,-5.2304 -3.89815,-9.56445 -0.49334,-3.91301 -0.49647,-4.941 -0.0263,-8.66996 0.78044,-6.19011 3.18691,-10.46188 5.89364,-10.46188 5.83306,0 8.47634,16.58377 4.12065,25.85263 -0.97139,2.0671 -3.03145,4.03153 -4.18292,3.98875 -0.28731,-0.0121 -1.14541,-0.52597 -1.90689,-1.14509 l 0,0 z"
           id="path3036"
           inkscape:connector-curvature="0" />
      </g>
    </g>
    <g
       inkscape:export-ydpi="90"
       inkscape:export-xdpi="90"
       inkscape:export-filename="/home/angelika/Pictures/drinkwaterfree/icon/dwf_info_color.png"
       id="g3076"
       transform="translate(-22.857143,-384.28572)">
      <path
         style="fill:#3e8c84"
         inkscape:connector-curvature="0"
         id="path3078"
         d="m 181.53068,493.1401 -3.89138,-13.63663 c -0.63176,-2.21323 -2.6537,-3.73887 -4.95431,-3.73887 h -27.77215 c -1.004,1.49255 -2.06331,2.99078 -3.18363,4.49729 -7.78431,10.4587 -15.69787,17.53318 -16.5752,18.3066 -2.25924,1.98938 -5.1611,3.08488 -8.17257,3.08488 -3.00939,0 -5.91125,-1.09447 -8.1736,-3.08591 -0.8763,-0.77239 -8.79089,-7.8479 -16.574684,-18.30557 -1.120316,-1.50651 -2.179627,-3.00526 -3.183621,-4.49729 H 61.276859 c -2.300603,0 -4.322549,1.52564 -4.95431,3.73887 l -4.637913,16.25208 103.671384,18.98902 26.17466,-21.60447 z" />
      <path
         style="fill:#3e8c84"
         inkscape:connector-curvature="0"
         id="path3080"
         d="m 193.55586,535.28405 -9.94171,-34.84302 -49.327,41.40982 h 54.31492 c 1.61662,0 3.13916,-0.75842 4.11265,-2.04883 0.97349,-1.29092 1.2842,-2.9639 0.84114,-4.51797 z" />
      <path
         style="fill:#3e8c84"
         inkscape:connector-curvature="0"
         id="path3082"
         d="m 65.433455,505.6073 -15.737161,-2.88273 -9.290301,32.55948 c -0.44306,1.55407 -0.132349,3.22705 0.841659,4.51745 0.973491,1.29041 2.496025,2.04883 4.112651,2.04883 H 65.433455 V 505.6073 z" />
      <polygon
         style="fill:#3e8c84"
         id="polygon3084"
         points="160.273,279.992 208.857,239.207 62.746,212.445 62.746,279.992 "
         transform="matrix(0.5169895,0,0,0.5169895,40.207986,397.09741)" />
      <g
         id="g3086"
         transform="translate(-127.7843,29.041886)">
        <path
           sodipodi:nodetypes="cscsscc"
           style="fill:none;stroke:#3e8c84;stroke-width:4.5655756;stroke-miterlimit:4;stroke-opacity:1;stroke-dasharray:none"
           inkscape:connector-curvature="0"
           id="path3088"
           d="m 248.42369,463.92913 c -0.97349,0.85614 -2.18893,1.28524 -3.40541,1.28524 -1.21647,0 -2.43243,-0.4291 -3.40541,-1.28524 -1.23302,-1.08619 -30.18753,-26.89431 -30.18753,-53.65989 0,-18.52994 15.06921,-33.60536 33.59243,-33.60536 18.52373,0 33.59345,15.07542 33.59345,33.60536 10e-4,26.76558 -28.95451,52.5737 -30.18753,53.65989 z" />
        <path
           style="fill:#3e8c84;fill-opacity:1;fill-rule:evenodd;stroke:none"
           d="m 241.37585,440.70125 c -2.2945,-0.61052 -3.385,-1.0836 -5.33158,-2.31298 -4.84022,-3.05687 -8.01775,-9.06287 -7.62624,-14.41472 0.42774,-5.84709 4.68576,-15.59274 10.79231,-24.70115 1.6631,-2.48065 4.53565,-6.20954 4.77605,-6.19985 0.0969,0.004 0.76958,1.22947 1.49475,2.72346 1.56127,3.21651 3.63623,6.37963 7.64585,11.65551 6.90912,9.09105 8.74303,11.87688 9.68817,14.71704 0.45238,1.35938 0.52057,2.00446 0.40286,3.81078 -0.47168,7.23817 -6.16175,13.39724 -13.81093,14.94927 -2.08765,0.42359 -6.00114,0.3128 -8.03124,-0.22736 z m 5.19264,-3.74377 c -3.7e-4,-0.10451 -0.72075,-0.56218 -1.60054,-1.01706 -3.5776,-1.84978 -7.04289,-5.89572 -8.18381,-9.55511 -0.61484,-1.97202 -0.7337,-6.85566 -0.24615,-10.1132 0.22729,-1.51868 0.357,-2.81748 0.28824,-2.88624 -0.42134,-0.42134 -2.88603,3.2024 -3.86507,5.68269 -0.61146,1.54906 -0.68603,2.06895 -0.68538,4.77831 5.2e-4,2.54775 0.0921,3.27014 0.56471,4.46022 1.60833,4.04978 5.02756,7.21394 9.04205,8.36751 1.53861,0.44212 4.68767,0.63222 4.68595,0.28288 l 0,0 z"
           id="path3090"
           inkscape:connector-curvature="0" />
        <path
           inkscape:connector-curvature="0"
           id="path3092"
           d="m 242.56153,420.8523 c -2.91325,-0.63319 -5.82447,-2.94052 -7.20237,-5.70836 -3.26318,-6.55486 0.83914,-14.47415 8.10391,-15.6441 6.30527,-1.01544 12.4062,4.29258 12.4062,10.79382 0,4.75913 -3.47772,9.26845 -8.08122,10.47834 -1.96363,0.51609 -3.13844,0.53414 -5.22652,0.0803 z m 5.44848,-4.74716 c 3.24417,-1.61495 4.44352,-5.73388 2.63639,-9.05418 -2.3994,-4.40849 -8.89695,-4.42281 -11.24718,-0.0248 -1.2351,2.31127 -1.18822,4.45474 0.14608,6.67803 1.77652,2.96014 5.32147,3.96564 8.46471,2.40093 z"
           style="fill:none;stroke:none" />
        <path
           inkscape:connector-curvature="0"
           id="path3094"
           d="m 242.99427,416.19247 c -1.82458,-0.62979 -3.35172,-2.22057 -3.89815,-4.0606 -0.49334,-1.66127 -0.49647,-2.0977 -0.0263,-3.68084 0.78044,-2.62801 3.18691,-4.44159 5.89364,-4.44159 5.83306,0 8.47634,7.04065 4.12065,10.97575 -0.97139,0.87759 -3.03145,1.71159 -4.18292,1.69342 -0.28731,-0.005 -1.14541,-0.2233 -1.90689,-0.48614 l 0,0 z"
           style="fill:none;stroke:none" />
        <path
           inkscape:connector-curvature="0"
           id="path3096"
           d="m 242.99427,428.16004 c -1.82458,-1.48342 -3.35172,-5.2304 -3.89815,-9.56445 -0.49334,-3.91301 -0.49647,-4.941 -0.0263,-8.66996 0.78044,-6.19011 3.18691,-10.46188 5.89364,-10.46188 5.83306,0 8.47634,16.58377 4.12065,25.85263 -0.97139,2.0671 -3.03145,4.03153 -4.18292,3.98875 -0.28731,-0.0121 -1.14541,-0.52597 -1.90689,-1.14509 l 0,0 z"
           style="fill:none;stroke:none" />
      </g>
    </g>
    <g
       inkscape:export-ydpi="90"
       inkscape:export-xdpi="90"
       inkscape:export-filename="/home/angelika/Pictures/drinkwaterfree/icon/dwf_info_color.png"
       id="g3098"
       transform="matrix(1.8187443,0,0,1.9803971,229.93681,-692.65757)">
      <path
         style="fill:#3e8c84"
         inkscape:connector-curvature="0"
         id="path3100"
         d="m 181.53068,493.1401 -3.89138,-13.63663 c -0.63176,-2.21323 -2.6537,-3.73887 -4.95431,-3.73887 h -27.77215 c -1.004,1.49255 -2.06331,2.99078 -3.18363,4.49729 -7.78431,10.4587 -15.69787,17.53318 -16.5752,18.3066 -2.25924,1.98938 -5.1611,3.08488 -8.17257,3.08488 -3.00939,0 -5.91125,-1.09447 -8.1736,-3.08591 -0.8763,-0.77239 -8.79089,-7.8479 -16.574684,-18.30557 -1.120316,-1.50651 -2.179627,-3.00526 -3.183621,-4.49729 H 61.276859 c -2.300603,0 -4.322549,1.52564 -4.95431,3.73887 l -4.637913,16.25208 103.671384,18.98902 26.17466,-21.60447 z" />
      <path
         style="fill:#3e8c84"
         inkscape:connector-curvature="0"
         id="path3102"
         d="m 193.55586,535.28405 -9.94171,-34.84302 -49.327,41.40982 h 54.31492 c 1.61662,0 3.13916,-0.75842 4.11265,-2.04883 0.97349,-1.29092 1.2842,-2.9639 0.84114,-4.51797 z" />
      <path
         style="fill:#3e8c84"
         inkscape:connector-curvature="0"
         id="path3104"
         d="m 65.433455,505.6073 -15.737161,-2.88273 -9.290301,32.55948 c -0.44306,1.55407 -0.132349,3.22705 0.841659,4.51745 0.973491,1.29041 2.496025,2.04883 4.112651,2.04883 H 65.433455 V 505.6073 z" />
      <polygon
         style="fill:#3e8c84"
         id="polygon3106"
         points="208.857,239.207 62.746,212.445 62.746,279.992 160.273,279.992 "
         transform="matrix(0.5169895,0,0,0.5169895,40.207986,397.09741)" />
      <g
         id="g3108"
         transform="translate(-127.7843,29.041886)">
        <path
           sodipodi:nodetypes="cscsscc"
           style="fill:none;stroke:#3e8c84;stroke-width:4.5655756;stroke-miterlimit:4;stroke-opacity:1;stroke-dasharray:none"
           inkscape:connector-curvature="0"
           id="path3110"
           d="m 248.42369,463.92913 c -0.97349,0.85614 -2.18893,1.28524 -3.40541,1.28524 -1.21647,0 -2.43243,-0.4291 -3.40541,-1.28524 -1.23302,-1.08619 -30.18753,-26.89431 -30.18753,-53.65989 0,-18.52994 15.06921,-33.60536 33.59243,-33.60536 18.52373,0 33.59345,15.07542 33.59345,33.60536 10e-4,26.76558 -28.95451,52.5737 -30.18753,53.65989 z" />
        <path
           style="fill:#3e8c84;fill-opacity:1;fill-rule:evenodd;stroke:none"
           d="m 241.37585,440.70125 c -2.2945,-0.61052 -3.385,-1.0836 -5.33158,-2.31298 -4.84022,-3.05687 -8.01775,-9.06287 -7.62624,-14.41472 0.42774,-5.84709 4.68576,-15.59274 10.79231,-24.70115 1.6631,-2.48065 4.53565,-6.20954 4.77605,-6.19985 0.0969,0.004 0.76958,1.22947 1.49475,2.72346 1.56127,3.21651 3.63623,6.37963 7.64585,11.65551 6.90912,9.09105 8.74303,11.87688 9.68817,14.71704 0.45238,1.35938 0.52057,2.00446 0.40286,3.81078 -0.47168,7.23817 -6.16175,13.39724 -13.81093,14.94927 -2.08765,0.42359 -6.00114,0.3128 -8.03124,-0.22736 z m 5.19264,-3.74377 c -3.7e-4,-0.10451 -0.72075,-0.56218 -1.60054,-1.01706 -3.5776,-1.84978 -7.04289,-5.89572 -8.18381,-9.55511 -0.61484,-1.97202 -0.7337,-6.85566 -0.24615,-10.1132 0.22729,-1.51868 0.357,-2.81748 0.28824,-2.88624 -0.42134,-0.42134 -2.88603,3.2024 -3.86507,5.68269 -0.61146,1.54906 -0.68603,2.06895 -0.68538,4.77831 5.2e-4,2.54775 0.0921,3.27014 0.56471,4.46022 1.60833,4.04978 5.02756,7.21394 9.04205,8.36751 1.53861,0.44212 4.68767,0.63222 4.68595,0.28288 l 0,0 z"
           id="path3112"
           inkscape:connector-curvature="0" />
        <path
           inkscape:connector-curvature="0"
           id="path3114"
           d="m 242.56153,420.8523 c -2.91325,-0.63319 -5.82447,-2.94052 -7.20237,-5.70836 -3.26318,-6.55486 0.83914,-14.47415 8.10391,-15.6441 6.30527,-1.01544 12.4062,4.29258 12.4062,10.79382 0,4.75913 -3.47772,9.26845 -8.08122,10.47834 -1.96363,0.51609 -3.13844,0.53414 -5.22652,0.0803 z m 5.44848,-4.74716 c 3.24417,-1.61495 4.44352,-5.73388 2.63639,-9.05418 -2.3994,-4.40849 -8.89695,-4.42281 -11.24718,-0.0248 -1.2351,2.31127 -1.18822,4.45474 0.14608,6.67803 1.77652,2.96014 5.32147,3.96564 8.46471,2.40093 z"
           style="fill:none;stroke:none" />
        <path
           inkscape:connector-curvature="0"
           id="path3116"
           d="m 242.99427,416.19247 c -1.82458,-0.62979 -3.35172,-2.22057 -3.89815,-4.0606 -0.49334,-1.66127 -0.49647,-2.0977 -0.0263,-3.68084 0.78044,-2.62801 3.18691,-4.44159 5.89364,-4.44159 5.83306,0 8.47634,7.04065 4.12065,10.97575 -0.97139,0.87759 -3.03145,1.71159 -4.18292,1.69342 -0.28731,-0.005 -1.14541,-0.2233 -1.90689,-0.48614 l 0,0 z"
           style="fill:none;stroke:none" />
        <path
           inkscape:connector-curvature="0"
           id="path3118"
           d="m 242.99427,428.16004 c -1.82458,-1.48342 -3.35172,-5.2304 -3.89815,-9.56445 -0.49334,-3.91301 -0.49647,-4.941 -0.0263,-8.66996 0.78044,-6.19011 3.18691,-10.46188 5.89364,-10.46188 5.83306,0 8.47634,16.58377 4.12065,25.85263 -0.97139,2.0671 -3.03145,4.03153 -4.18292,3.98875 -0.28731,-0.0121 -1.14541,-0.52597 -1.90689,-1.14509 l 0,0 z"
           style="fill:none;stroke:none" />
      </g>
    </g>
  </g>
</svg>
